<svg width="362" height="101" viewBox="0 0 362 101" fill="none" xmlns="http://www.w3.org/2000/svg">
<circle cx="113.57" cy="50.5" r="49.5" fill="#D7B12B"/>
<path d="M80.1 64.73V48.8C80.1 36.65 77.31 27.74 64.8 27.74C59.04 27.74 53.01 30.17 49.14 37.19C47.25 31.34 43.11 27.74 35.19 27.74C29.07 27.74 23.67 30.35 20.16 36.11H19.71V32.15C19.71 29.09 18.81 27.65 15.75 27.65C11.61 27.65 2.34 30.98 2.34 33.59C2.34 35.48 3.78 35.93 6.12 37.37C7.02 38 7.83 39.08 7.83 41.33L7.74 64.73C7.74 68.33 3.24 68.51 3.24 71.3C3.24 73.46 5.13 74 7.92 74H20.61C23.4 74 25.29 73.46 25.29 71.3C25.29 68.51 20.79 68.33 20.79 64.73V49.25C20.79 42.41 23.76 37.28 30.42 37.28C35.01 37.28 37.44 41.69 37.44 49.7V64.73C37.44 68.33 32.94 68.51 32.94 71.3C32.94 73.46 34.83 74 37.71 74H50.31C53.1 74 54.99 73.46 54.99 71.3C54.99 68.51 50.49 68.33 50.49 64.73V48.35C50.49 41.6 54.09 37.28 59.58 37.28C65.52 37.28 67.14 42.68 67.14 50.15V64.73C67.14 68.33 62.64 68.51 62.64 71.3C62.64 73.46 64.44 74 67.32 74H79.92C82.8 74 84.69 73.46 84.69 71.3C84.69 68.51 80.1 68.33 80.1 64.73ZM114.02 75.35C128.42 75.35 139.22 65.36 139.22 50.78C139.22 36.2 128.42 27.74 114.83 27.74C100.88 27.74 89.5402 37.64 89.4502 52.31C89.5402 66.35 99.8902 75.35 114.02 75.35ZM116.45 69.32C107.81 69.32 103.4 55.82 103.4 45.92C103.4 38.45 106.37 33.68 112.22 33.68C120.86 33.68 125.27 47.18 125.27 56.9C125.27 64.55 122.12 69.32 116.45 69.32ZM149.688 74H162.378C165.168 74 167.058 73.46 167.058 71.3C167.058 68.51 162.558 68.33 162.558 64.73V49.16C162.558 42.5 165.438 37.28 171.288 37.28C176.598 37.28 178.848 40.88 178.848 47.9V64.73C178.848 68.33 174.348 68.51 174.348 71.3C174.348 73.46 176.238 74 179.118 74H191.718C194.508 74 196.398 73.46 196.398 71.3C196.398 68.51 191.898 68.33 191.898 64.73V45.83C191.898 34.13 186.858 27.65 176.328 27.65C169.488 27.65 164.628 31.07 161.928 36.11H161.478V32.15C161.478 29.09 160.578 27.65 157.518 27.65C153.378 27.65 144.108 30.98 144.108 33.59C144.108 35.48 145.548 35.93 147.888 37.37C148.788 38 149.598 39.08 149.508 41.33V64.73C149.508 68.33 145.008 68.51 145.008 71.3C145.008 73.46 146.898 74 149.688 74ZM241.299 59.24C240.399 59.24 239.679 59.6 238.779 60.5C235.539 63.83 232.659 65.36 228.429 65.36C220.419 65.36 215.019 59.87 213.849 51.14H237.249C241.659 51.14 243.639 49.25 243.639 44.84C243.639 35.57 236.889 27.83 224.559 27.83C210.609 27.83 201.159 38.09 201.159 52.22C201.159 66.08 210.699 75.26 225.279 75.26C234.189 75.26 240.579 70.4 243.009 64.64C243.369 63.65 243.549 62.75 243.549 61.85C243.549 60.23 242.559 59.24 241.299 59.24ZM223.119 33.41C229.149 33.41 231.309 37.91 231.309 43.76C231.309 44.48 231.219 45.56 231.039 46.19H213.579C213.939 38.72 217.719 33.41 223.119 33.41ZM269.397 75.35C280.917 75.35 284.067 67.52 284.067 62.3C284.067 58.34 282.447 56.54 279.657 56.54C276.327 56.54 275.157 58.88 275.157 62.3C275.157 67.16 273.987 69.5 271.017 69.5C267.057 69.5 267.147 65.63 267.147 60.14V35.03H276.237C278.757 35.03 279.837 34.13 279.837 31.88C279.837 29.63 278.397 29 276.417 29H267.057V18.29C267.057 14.87 266.697 13.52 264.447 13.52C258.237 13.52 260.937 29 251.847 29H251.037C249.057 29 247.437 29.63 247.437 32.15C247.437 34.13 248.787 35.03 250.587 35.03H253.827V55.01C253.827 64.19 254.727 75.35 269.397 75.35ZM356.324 59.24C355.424 59.24 354.704 59.6 353.804 60.5C350.564 63.83 347.774 65.36 343.454 65.36C335.444 65.36 330.044 59.87 328.874 51.14H352.274C356.774 51.14 358.664 49.25 358.664 44.84C358.664 35.57 351.914 27.83 339.584 27.83C333.464 27.83 328.154 29.81 324.194 33.23C321.134 29.63 316.274 27.65 308.984 27.65C295.934 27.65 288.914 34.13 288.914 39.17C288.914 42.59 291.344 44.48 294.134 44.48C297.194 44.48 298.994 42.68 300.344 38.99C302.054 35.21 304.664 32.51 308.624 32.51C312.944 32.51 314.564 35.39 314.564 38.72C314.564 42.5 312.944 44.57 306.914 47.09C297.194 51.5 287.204 54.47 287.204 63.74C287.204 69.77 291.614 75.35 300.884 75.35C309.974 75.35 315.374 70.31 318.614 63.29C322.304 70.76 330.044 75.26 340.304 75.26C349.214 75.26 355.604 70.4 358.034 64.64C358.394 63.65 358.664 62.75 358.664 61.85C358.664 60.23 357.674 59.24 356.324 59.24ZM338.144 33.41C344.174 33.41 346.334 37.91 346.334 43.76C346.334 44.48 346.244 45.56 346.064 46.19H328.604C328.964 38.72 332.744 33.41 338.144 33.41ZM315.464 55.28C315.464 63.2 310.784 66.89 305.924 66.89C302.414 66.89 299.894 64.73 299.894 61.22C299.894 57.53 302.594 55.1 308.624 52.76L315.464 50.06V55.28Z" fill="#3E3103"/>
</svg>
